

[center]

[img]http://desmond.imageshack.us/Himg138/scaled.php?server=138&filename=a51d945b2456db83ad8b15e.jpg&res=medium[/img]
TITLE: 

Best Laid Plans 2012 DVDRiP AC3 XViD - INSPiRAL

IMDB: 
 
http://www.imdb.com/title/tt1764198/


SOURCES:

VIDEO - LEGEND THANKS
AUDIO - LEGEND THANKS
SUBS  - None Add

STATS:

Video
ID                               : 0
Format                           : MPEG-4 Visual
Format profile                   : Advanced Simple@L5
Format settings, BVOP            : 2
Format settings, QPel            : No
Format settings, GMC             : No warppoints
Format settings, Matrix          : Default (MPEG)
Muxing mode                      : Packed bitstream
Codec ID                         : XVID
Codec ID/Hint                    : XviD
Duration                         : 1h 43mn
Bit rate                         : 1 429 Kbps
Width                            : 720 pixels
Height                           : 304 pixels
Display aspect ratio             : 2.35:1
Frame rate                       : 25.000 fps
Color space                      : YUV
Chroma subsampling               : 4:2:0
Bit depth                        : 8 bits
Scan type                        : Progressive
Compression mode                 : Lossy
Bits/(Pixel*Frame)               : 0.261
Stream size                      : 1.03 GiB (76%)
Writing library                  : XviD 64

Audio
ID                               : 1
Format                           : AC-3
Format/Info                      : Audio Coding 3
Mode extension                   : CM (complete main)
Codec ID                         : 2000
Duration                         : 1h 43mn
Bit rate mode                    : Constant
Bit rate                         : 448 Kbps
Channel(s)                       : 6 channels
Channel positions                : Front: L C R, Side: L R, LFE
Sampling rate                    : 48.0 KHz
Bit depth                        : 16 bits
Compression mode                 : Lossy
Stream size                      : 332 MiB (24%)
Alignment                        : Aligned on interleaves
Interleave, duration             : 40 ms (1.00 video frame)
Interleave, preload duration     : 512 ms


NOTES:

sOURCE:
What can i say ....untouched vobs,lookin and sounding very nice.

Workdone:
Just made a script in megui to crop,resize,heavy noise,sharpen and a touch of contrast....then dropped in it
vdub and hey presto.
Audio,just stripped and remuxed untouched 5.1 track 


SCREENS:

[img]http://img577.imageshack.us/img577/5563/awawc.png[/img]
[img]http://img138.imageshack.us/img138/9431/bvmzh.png[/img]
[img]http://img38.imageshack.us/img38/5130/j1hrw.png[/img]
[img]http://img213.imageshack.us/img213/5296/tdylo.png[/img][/center]